Coordinates
version=1
nRows=11
nColumns=40
inDegrees=yes

Units are S.I. units (second, meters, Newtons, ...)
Angles are in degrees.

endheader
time	pelvis_tilt	pelvis_list	pelvis_rotation	pelvis_tx	pelvis_ty	pelvis_tz	hip_flexion_r	hip_adduction_r	hip_rotation_r	knee_angle_r	knee_angle_r_beta	ankle_angle_r	subtalar_angle_r	mtp_angle_r	hip_flexion_l	hip_adduction_l	hip_rotation_l	knee_angle_l	knee_angle_l_beta	ankle_angle_l	subtalar_angle_l	mtp_angle_l	lumbar_extension	lumbar_bending	lumbar_rotation	arm_flex_r	arm_add_r	arm_rot_r	elbow_flex_r	pro_sup_r	wrist_flex_r	wrist_dev_r	arm_flex_l	arm_add_l	arm_rot_l	elbow_flex_l	pro_sup_l	wrist_flex_l	wrist_dev_l
     30.76000000	     -5.82597767	     -6.33275627	     -4.08334810	      1.08971566	      0.93159297	      0.51909602	     13.84433443	      4.85345193	    -16.30171889	     15.03502058	     15.03502058	      8.41338666	      7.88168752	     -1.26935204	     35.19431422	    -16.99138830	      1.79365289	     64.18939174	     64.18939174	      7.13047149	    -18.17306913	     10.16781090	    -12.52318525	      6.79018541	      3.75442371	     16.68286760	    -14.27074476	     -6.53923934	     51.76045955	     45.91824806	      0.00000000	      0.00000000	      8.42925423	     -6.68525931	     -6.15035664	     40.01238881	     45.80518630	      0.00000000	      0.00000000
     30.77071429	     -6.01383020	     -6.22469509	     -3.99553898	      1.08790458	      0.93140313	      0.51943826	     13.51128957	      4.68209503	    -16.67225656	     15.03152009	     15.03152009	      8.88439269	      8.64802622	     -1.55021618	     36.24303058	    -16.82536926	      1.72016161	     61.67367656	     61.67367656	      7.23277881	    -18.17618915	     10.37526447	    -12.38731665	      6.72068615	      3.51681370	     19.21548909	    -14.13398321	     -6.49113177	     53.16967824	     45.87317226	      0.00000000	      0.00000000	      7.06390119	     -6.86107166	     -6.04885633	     37.92283572	     45.77950956	      0.00000000	      0.00000000
     30.78142857	     -6.13771415	     -6.20489269	     -3.89648195	      1.08614528	      0.93138624	      0.51976468	     12.94443104	      4.69590155	    -16.84113780	     14.67410175	     14.67410175	      9.25169964	      9.08795583	     -1.64977575	     36.99185795	    -16.76589145	      1.56400038	     58.78761948	     58.78761948	      6.93970950	    -18.10608135	     10.04020541	    -12.36200250	      6.82515150	      3.79318983	     21.24811524	    -14.68792599	     -5.48409085	     55.19062409	     45.75326168	      0.00000000	      0.00000000	      6.58248355	     -6.71817423	     -6.12475558	     34.53328936	     45.81848179	      0.00000000	      0.00000000
     30.79214286	     -6.22280881	     -6.20048634	     -3.79751646	      1.08448591	      0.93134679	      0.52007952	     12.30723740	      4.77445657	    -16.77356710	     14.23492566	     14.23492566	      9.57391533	      9.17840981	     -1.68397720	     37.52409606	    -16.65704959	      1.44813386	     55.69433446	     55.69433446	      6.81597255	    -17.97900677	     10.38698472	    -12.41781935	      6.89384407	      3.76182384	     23.57902288	    -14.68323960	     -5.47368781	     56.93585235	     45.69960369	      0.00000000	      0.00000000	      5.20472596	     -6.81863532	     -6.14316101	     33.32427354	     45.80943738	      0.00000000	      0.00000000
     30.80285714	     -6.30514961	     -6.20008183	     -3.71276270	      1.08292368	      0.93123718	      0.52031953	     11.66866548	      4.84298268	    -16.74808261	     13.79855344	     13.79855344	      9.88477896	      9.36232875	     -1.74548580	     37.88378048	    -16.52870752	      1.29747452	     52.38458157	     52.38458157	      6.63501715	    -17.79622143	     10.80721949	    -12.45529463	      6.96404581	      3.81921251	     25.79607080	    -14.74570974	     -5.33660855	     58.68832205	     45.64124813	      0.00000000	      0.00000000	      3.95308558	     -6.90382542	     -6.16274089	     32.12417649	     45.80077237	      0.00000000	      0.00000000
     30.81357143	     -6.40009959	     -6.23702488	     -3.62028261	      1.08143590	      0.93100835	      0.52042246	     11.01200267	      4.94440888	    -16.78130075	     13.31642246	     13.31642246	     10.19131096	      9.62427163	     -1.82004604	     38.14489918	    -16.40579217	      1.15398990	     48.91788193	     48.91788193	      6.43655700	    -17.50167980	     11.23532955	    -12.47407385	      7.08558613	      3.87929594	     27.93171727	    -14.84358150	     -5.09140406	     60.58551584	     45.57408859	      0.00000000	      0.00000000	      2.75034105	     -6.97792970	     -6.20448315	     30.95831930	     45.79599576	      0.00000000	      0.00000000
     30.82428571	     -6.57525163	     -6.28040925	     -3.55629016	      1.07997023	      0.93051561	      0.52042884	     10.47331439	      5.04220221	    -16.76755344	     12.88937057	     12.88937057	     10.52195435	      9.87081540	     -1.92061306	     38.40616370	    -16.28343887	      0.98330346	     45.36952129	     45.36952129	      6.31079871	    -17.02627285	     11.68069294	    -12.37941509	      7.20042099	      4.15474982	     30.03001974	    -15.11086289	     -4.97177524	     62.23540912	     45.52171229	      0.00000000	      0.00000000	      1.60420762	     -6.99043210	     -6.24847634	     30.14765386	     45.78907643	      0.00000000	      0.00000000
     30.83500000	     -6.61930772	     -6.42336815	     -3.41330421	      1.07873910	      0.93020087	      0.52021677	      9.64475008	      5.24557317	    -16.96682756	     12.21474382	     12.21474382	     10.76384379	     10.35669952	     -1.98743508	     38.41169322	    -16.15447075	      0.93226467	     41.64648203	     41.64648203	      6.08444799	    -16.50343797	     11.96165486	    -12.45969695	      7.46272205	      4.01647877	     31.91719810	    -15.11732650	     -4.45445217	     64.83658989	     45.42083027	      0.00000000	      0.00000000	      0.36821732	     -7.10726918	     -6.36249046	     29.19410856	     45.79510546	      0.00000000	      0.00000000
     30.84571429	     -6.74451751	     -6.53967936	     -3.28580720	      1.07753949	      0.92962777	      0.51986431	      8.92411690	      5.40797973	    -17.13971106	     11.58559204	     11.58559204	     11.02488864	     10.84971796	     -2.09426108	     38.45359566	    -16.01078327	      0.77732526	     37.93163121	     37.93163121	      5.86990143	    -15.71072559	     12.07922791	    -12.43668321	      7.71123126	      4.17020231	     33.67004766	    -15.42049599	     -3.95825893	     67.49981385	     45.32076653	      0.00000000	      0.00000000	     -0.78505718	     -7.14035347	     -6.51980558	     28.63491187	     45.80867202	      0.00000000	      0.00000000
     30.85642857	     -6.88985638	     -6.65431573	     -3.19185150	      1.07648602	      0.92893737	      0.51942710	      8.21743068	      5.56121701	    -17.33570776	     10.96244896	     10.96244896	     11.26815203	     11.41536424	     -2.28096376	     38.40546068	    -15.87772483	      0.50552089	     34.18084438	     34.18084438	      5.53536384	    -14.72651840	     11.63956906	    -12.38308551	      7.93850001	      4.64229511	     34.92128213	    -16.18733945	     -3.26987340	     71.09075872	     45.18798693	      0.00000000	      0.00000000	     -1.90131468	     -7.20120577	     -6.80227712	     28.52288987	     45.84915982	      0.00000000	      0.00000000
     30.86714286	     -6.98740971	     -6.79292569	     -3.03292021	      1.07557919	      0.92824785	      0.51881467	      7.39147465	      5.76020043	    -17.45003522	     10.22785894	     10.22785894	     11.53956985	     11.84610213	     -2.35408787	     38.29856071	    -15.72042248	      0.22427602	     30.58377803	     30.58377803	      5.48899356	    -13.41987559	     11.89709544	    -12.32862490	      8.19056544	      4.57217405	     36.69413945	    -16.12292907	     -3.21384199	     73.42025596	     45.12170067	      0.00000000	      0.00000000	     -3.13539640	     -7.28003107	     -6.82494840	     28.21783820	     45.83898308	      0.00000000	      0.00000000
